<?xml version="1.0" encoding="UTF-8"?>
<svg id="Calque_1" xmlns="http://www.w3.org/2000/svg" version="1.1" viewBox="0 0 1957.2 768">
  <!-- Generator: Adobe Illustrator 29.6.1, SVG Export Plug-In . SVG Version: 2.1.1 Build 9)  -->
  <defs>
    <style>
      .st0 {
        fill: #ff3e00;
      }
    </style>
  </defs>
  <path class="st0" d="M109.6,679h591V88H109.6v591ZM582.5,365.5c10,7,18.3,11.9,24.9,14.8,4.3,1.9,8.6,2.9,12.8,2.9s10.4-1.6,14.9-4.9c4.5-3.3,7.6-7.7,9.4-13.1,1.8-5.5,2.7-16,2.7-31.7v-128.3h19.1v129c0,19.8-1.5,33.6-4.6,41.4-3.1,7.8-8.2,13.9-15.4,18.6-7.2,4.6-15.9,7-26.1,7s-15.3-1.5-22.8-4.5c-7.5-3-15.8-8.2-24.9-15.8l10.1-15.2ZM510.3,447.9h2.8l71.2,143.8,70.6-143.8h2.8l25.2,175.3h-17.2l-17.3-125.3-62,125.3h-4.5l-62.7-126.3-17.2,126.3h-16.9l25.1-175.3ZM351.8,447.9h100.4v17.2h-82.9v54.9h82.2v17.2h-82.2v68.9h82.2v17.2h-99.7v-175.3ZM159.3,447.9h36.3c26.2,0,45.2,2.1,57.1,6.3,17,6,30.3,16.3,39.9,31,9.6,14.7,14.4,32.2,14.4,52.5s-3.8,33-11.4,46.3c-7.6,13.3-17.4,23.2-29.5,29.5-12.1,6.4-29.1,9.5-50.9,9.5h-55.8v-175.3Z"/>
  <path class="st0" d="M277.9,578.9c7.5-11.2,11.3-24.8,11.3-40.9s-4.1-31.3-12.3-43.3c-8.2-12-19.6-20.2-34.2-24.6-11-3.3-29-5-54.2-5h-12.4v141.5h20.3c24.2,0,41-1.5,50.4-4.5,13.2-4.3,23.5-12,31.1-23.2"/>
  <path class="st0" d="M1469.5,377.9c-5.6,3-11.6,4.5-18.1,4.5-15,0-28.2-10.5-39.6-31.6l-16.2,9.7c8,14.5,16.7,24.9,26.1,31.1,9.4,6.2,20,9.3,31.6,9.3s27.9-5.1,38.4-15.3c10.5-10.2,15.8-22.3,15.8-36.1s-3.1-19.2-9.2-28.7c-6.1-9.5-17.5-20.4-34-32.6-13.9-10.3-22.2-16.7-24.7-19.1-4.6-4.6-7.8-8.8-9.5-12.7-1.7-3.9-2.6-7.9-2.6-12.1,0-6.8,2.4-12.6,7.3-17.3,4.9-4.7,11.2-7,18.9-7s11.5,1.5,16.6,4.5c5.1,3,11.2,9.3,18.4,18.8l15.6-11.8c-8.7-11.9-17-20.2-24.9-24.6-7.8-4.5-16.3-6.7-25.3-6.7s-16.3,2-23.6,5.9c-7.2,3.9-12.8,9.3-16.8,16.2-4,6.8-6,14.4-6,22.7s3.4,20.2,10.1,29.2c3.9,5.4,13.8,14.1,29.7,26.1,15.8,12,26.8,22.2,32.7,30.7,4.3,6.1,6.5,12.4,6.5,18.8s-1.5,11-4.4,16c-2.9,5-7.2,9-12.9,12"/>
  <polygon class="st0" points="830.8 377.4 741.2 377.4 741.2 302.4 830.8 302.4 830.8 283.7 741.2 283.7 741.2 223.8 831.6 223.8 831.6 205.1 722.1 205.1 722.1 396.1 830.8 396.1 830.8 377.4"/>
  <polygon class="st0" points="1077.2 251.5 1203.3 396.1 1207.6 396.1 1207.6 205.1 1188.8 205.1 1188.8 351.5 1061.6 205.1 1057.5 205.1 1057.5 396.1 1077.2 396.1 1077.2 251.5"/>
  <polygon class="st0" points="1372.3 377.4 1282.6 377.4 1282.6 302.4 1372.3 302.4 1372.3 283.7 1282.6 283.7 1282.6 223.8 1373 223.8 1373 205.1 1263.5 205.1 1263.5 396.1 1372.3 396.1 1372.3 377.4"/>
  <path class="st0" d="M998.9,470.8c11.9-6.7,24.9-10.1,38.8-10.1s24.5,2.6,35.2,7.7c10.7,5.1,19.8,12.6,27.5,22.6l13.8-10.6c-8.4-11.7-19.2-20.7-32.4-27.2-13.2-6.5-28-9.7-44.3-9.7-27.1,0-49.6,8.8-67.6,26.3-18,17.5-27,39.1-27,64.8s7.4,45.2,22.3,62.4c17.7,20.4,41.9,30.6,72.6,30.6s30.7-3,43.8-9.1c13.1-6.1,24-14.7,32.7-25.8l-13.8-10.5c-16.5,19.2-37.1,28.8-61.6,28.8s-40.8-7.1-55.5-21.4c-14.7-14.3-22-32.1-22-53.5s3.3-26.9,9.8-38.2c6.6-11.3,15.8-20.3,27.7-27"/>
  <polygon class="st0" points="1489.1 465 1528.1 465 1528.1 623.1 1546 623.1 1546 465 1585.1 465 1585.1 447.9 1489.1 447.9 1489.1 465"/>
  <polygon class="st0" points="1621.2 623.1 1720.9 623.1 1720.9 606 1638.7 606 1638.7 537.1 1720.9 537.1 1720.9 520 1638.7 520 1638.7 465 1721.6 465 1721.6 447.9 1621.2 447.9 1621.2 623.1"/>
  <path class="st0" d="M1838.6,554c-5.6-8.7-16-18.7-31.2-29.9-12.8-9.5-20.3-15.3-22.6-17.5-4.2-4.2-7.1-8.1-8.7-11.7-1.6-3.6-2.4-7.3-2.4-11.1,0-6.3,2.2-11.6,6.7-15.8,4.5-4.3,10.3-6.4,17.3-6.4s10.5,1.4,15.2,4.2c4.6,2.8,10.3,8.5,16.9,17.3l14.3-10.8c-8-11-15.6-18.5-22.8-22.6-7.2-4.1-14.9-6.1-23.2-6.1s-15,1.8-21.6,5.4c-6.6,3.6-11.8,8.6-15.4,14.8-3.7,6.3-5.5,13.2-5.5,20.8s3.1,18.5,9.3,26.8c3.6,4.9,12.7,12.9,27.3,23.9,14.5,11,24.5,20.3,30,28.1,4,5.6,6,11.4,6,17.3s-1.4,10-4.1,14.7c-2.7,4.6-6.6,8.3-11.8,11-5.2,2.7-10.7,4.1-16.6,4.1-13.7,0-25.9-9.7-36.3-29l-14.9,8.9c7.3,13.3,15.3,22.9,23.9,28.5,8.7,5.7,18.3,8.5,29,8.5s25.6-4.7,35.2-14.1c9.7-9.4,14.5-20.4,14.5-33.1s-2.8-17.6-8.5-26.3"/>
  <path class="st0" d="M811.6,443.5c-16.4,0-31.6,4.1-45.7,12.2-14.1,8.1-25.2,19.4-33.3,33.8-8.1,14.4-12.2,30-12.2,46.8,0,25.3,8.9,46.8,26.8,64.6,17.9,17.8,39.8,26.7,65.8,26.7s47.4-8.9,65.3-26.8c17.8-17.9,26.8-39.6,26.8-65.3s-8.9-47.7-26.8-65.4c-17.9-17.7-40.1-26.6-66.6-26.6M877.2,573.5c-6.5,11.4-15.5,20.5-27.1,27.1-11.6,6.6-24.2,9.9-37.8,9.9-20.4,0-37.8-7.2-52.2-21.5-14.4-14.3-21.7-31.9-21.7-52.8s3.3-26.8,9.8-38.3c6.5-11.4,15.6-20.5,27.2-27.3,11.6-6.8,23.9-10.1,36.9-10.1s25.7,3.4,37.5,10.1c11.8,6.8,20.9,15.8,27.4,27,6.5,11.2,9.7,23.8,9.7,37.7s-3.2,26.7-9.7,38.2"/>
  <path class="st0" d="M1386.2,447.9l-82.8,175.3h19.5l27.3-57.7h75.5l27.6,57.7h18.9l-81.7-175.3h-4.3ZM1358.3,548.6l30-63.4,29.9,63.4h-59.9Z"/>
  <path class="st0" d="M996,361.8c3.3-10.5,5-24.3,5-41.4v-115.3h-19.1v115.3c0,15.1-.6,25-1.9,29.9-1.8,6.8-4.7,12.5-8.6,17.3-3.9,4.8-8.7,8.5-14.5,11.2-5.8,2.7-11.9,4-18.2,4s-14.5-1.7-21.7-5.1c-7.2-3.4-12.5-7.7-16-12.7-3.5-5.1-5.7-11.4-6.6-18.9-.5-3.4-.8-11.9-.8-25.6v-115.3h-19.1v115.3c0,19.4,1.2,32.8,3.5,40.3,3.7,12.1,11.1,21.9,22.1,29.2,11,7.4,24.2,11,39.6,11s26.3-3.9,36.3-11.7c10-7.8,16.7-17,20-27.5"/>
  <path class="st0" d="M1244.7,536.1c8.3-3.7,14.8-9.2,19.2-16.4,4.5-7.2,6.7-15.6,6.7-25.2s-3.3-21.1-9.8-28.9c-6.5-7.8-15-12.9-25.4-15.3-6.9-1.6-20.1-2.4-39.6-2.4h-34.9v175.3h17.5v-81.4h9.9l63,81.4h21.7l-63-81.4c14.7,0,26.2-2,34.6-5.7M1178.5,524.6v-59.6h30.9c12,0,20.6,1,25.8,3.1,5.2,2.1,9.3,5.5,12.5,10.3,3.2,4.8,4.8,10.1,4.8,16s-1.6,11.5-4.7,16.4c-3.1,4.9-7.5,8.4-13.1,10.7-5.6,2.2-14.3,3.3-26,3.3l-30.2-.2Z"/>
</svg>