<svg width="112" height="36" viewBox="0 0 112 36" fill="none" xmlns="http://www.w3.org/2000/svg">
<g clip-path="url(#clip0_4116_3702)">
<path fill-rule="evenodd" clip-rule="evenodd" d="M92.6072 22.3308H98.1367V23.4558H93.796V26.6841H98.0088V27.8082H93.796V32.0733H98.1358V33.1983H92.6064V22.3299L92.6072 22.3308ZM87.0937 33.1974H85.9049V23.4558H83.3315V22.3308H89.6952V23.4558H87.0937V33.1974ZM77.7183 24.6366L75.8946 28.989H79.4997L77.7183 24.6366ZM75.413 30.1131L74.1272 33.1974H72.8265L77.7474 21.8124L82.5405 33.1974H81.2256L79.9671 30.1131H75.413ZM65.6435 27.36H66.0112C67.3543 27.36 68.7124 27.1017 68.7124 25.416C68.7124 23.6286 67.4249 23.4567 65.9971 23.4567H65.6435V27.36ZM65.6435 33.1983H64.4556V22.3308H65.9971C68.0193 22.3308 69.9003 22.8798 69.9003 25.3278C69.9003 27.0009 68.8677 28.1808 67.2282 28.3266L70.62 33.1974H69.1649L65.9407 28.4274H65.6435V33.1983ZM60.7516 24.7113C59.9032 23.8158 58.7295 23.2695 57.4992 23.2695C55.1243 23.2695 53.2009 25.3728 53.2009 27.765C53.2009 30.1581 55.1384 32.2614 57.5266 32.2614C58.7294 32.2614 59.9032 31.6854 60.7516 30.8205V32.319C59.8318 32.9958 58.7003 33.3864 57.5698 33.3864C54.5581 33.3864 52.0139 30.8916 52.0139 27.8091C52.0139 24.6951 54.5158 22.1445 57.5698 22.1445C58.7568 22.1445 59.8036 22.4901 60.7516 23.211V24.7104V24.7113ZM43.7558 32.2623C46.1731 32.2623 48.1247 30.2157 48.1247 27.765C48.1247 25.3008 46.2022 23.2695 43.7558 23.2695C41.3086 23.2695 39.3861 25.3008 39.3861 27.765C39.3861 30.2157 41.3377 32.2623 43.7558 32.2623ZM43.7558 33.3864C40.7151 33.3864 38.1982 30.9078 38.1982 27.7794C38.1982 24.6672 40.7151 22.1454 43.7558 22.1454C46.7957 22.1454 49.3117 24.6672 49.3117 27.7794C49.3117 30.9078 46.7957 33.3864 43.7558 33.3864ZM109.223 19.8954H108.033V10.1529H105.46V9.02792H111.824V10.1529H109.222V19.8945L109.223 19.8954ZM92.9741 8.56802L101.289 17.4447V9.02702H102.477V20.385L94.1629 11.52V19.8936H92.9741V8.56802ZM83.6569 9.02792H89.1864V10.1529H84.844V13.3812H89.0594V14.5053H84.844V18.7704H89.1855V19.8954H83.6569V9.02702V9.02792ZM70.6773 8.40872L74.5506 17.532L78.4397 8.40872L80.6047 19.8945H79.3877L78.0164 12.5451L74.5514 20.3418L71.1315 12.5451L69.7301 19.8945H68.514L70.6773 8.40872ZM60.0435 9.02792H65.5729V10.1529H61.2323V13.3812H65.4459V14.5053H61.2323V18.7704H65.5729V19.8954H60.0435V9.02702V9.02792ZM52.8605 17.316L55.9021 9.02882H57.1879L52.8605 20.5434L48.5348 9.02702H49.8206L52.8605 17.3142V17.316ZM39.3014 15.498C39.3014 16.3053 39.2732 17.2278 39.7679 17.9199C40.2353 18.5823 41.1402 18.9567 41.9171 18.9567C42.6799 18.9567 43.5151 18.5967 44.0098 17.9919C44.576 17.2998 44.5328 16.3485 44.5328 15.498V9.02702H45.7207V15.831C45.7207 17.0109 45.636 17.9478 44.7877 18.8415C44.0522 19.6488 42.9921 20.0817 41.9171 20.0817C40.9135 20.0817 39.8799 19.6929 39.1603 18.9711C38.2273 18.0639 38.1135 17.0685 38.1135 15.8301V9.02702H39.3014V15.498Z" fill="#EF5327"/>
<path fill-rule="evenodd" clip-rule="evenodd" d="M33.6459 14.4612C33.6459 11.997 31.7233 9.9657 29.2761 9.9657C26.8297 9.9657 24.9072 11.997 24.9072 14.4612C24.9072 16.9119 26.8579 18.9576 29.2761 18.9576C31.6942 18.9576 33.6459 16.9119 33.6459 14.4612ZM5.88925 23.4558H5.02676V32.0733H5.88925C7.19004 32.0733 8.27917 31.8861 9.25454 30.9483C10.1311 30.1131 10.5844 28.9746 10.5844 27.7641C10.5844 26.5248 10.117 25.3278 9.19722 24.5061C8.22273 23.6277 7.14771 23.4558 5.89013 23.4558H5.88925Z" fill="#EF5327"/>
<path fill-rule="evenodd" clip-rule="evenodd" d="M34.4651 33.1974L33.0938 25.848H33.0664L29.6297 33.6438L26.208 25.848H26.1798L24.8084 33.1974H23.5914L25.7556 21.7107L29.6297 30.834L33.5189 21.7107L35.6821 33.1974H34.4651ZM19.9863 19.8945L18.6149 12.5451H18.5885L15.1509 20.34L11.7291 12.546H11.7009L10.3296 19.8954H9.11256L11.2767 8.4087L15.1509 17.532L19.04 8.4078L21.2033 19.8945H19.9863ZM20.6512 23.4549H16.3105V26.6832H20.5242V27.8082H16.3105V32.0733H20.6512V33.1974H15.1218V22.3308H20.6512V23.4549ZM10.0333 31.8276C8.75892 32.9796 7.48636 33.1974 5.8187 33.1974H3.83886V22.3308H5.84692C7.44491 22.3308 8.74569 22.5468 10.0033 23.643C11.2203 24.7095 11.7723 26.163 11.7723 27.7785C11.7723 29.3625 11.2062 30.7611 10.0324 31.8285L10.0333 31.8276ZM29.2761 8.8407C32.316 8.8407 34.8329 11.3625 34.8329 14.4747C34.8329 17.6031 32.316 20.0817 29.277 20.0817C26.2362 20.0817 23.7193 17.6031 23.7193 14.4747C23.7193 11.3625 26.2362 8.8407 29.2761 8.8407ZM0.705505 36.027H36.2368V0H0.705505V36.027Z" fill="#EF5327"/>
</g>
<defs>
<clipPath id="clip0_4116_3702">
<rect width="112" height="36" fill="white"/>
</clipPath>
</defs>
</svg>
