<?xml version="1.0" encoding="UTF-8"?>
<svg id="Livello_1" data-name="Livello 1" xmlns="http://www.w3.org/2000/svg" viewBox="0 0 336.84 57.99">
  <defs>
    <style>
      .cls-1 {
        fill: #ff4e00;
      }
    </style>
  </defs>
  <g>
    <path class="cls-1" d="M111.94,18.42c0-5.28,1.68-9.64,5.03-13.06,3.35-3.42,7.65-5.14,12.9-5.14s9.53,1.71,12.84,5.14c3.31,3.42,4.97,7.78,4.97,13.06s-1.66,9.64-4.97,13.06c-3.32,3.42-7.6,5.14-12.84,5.14s-9.55-1.71-12.9-5.14c-3.35-3.42-5.03-7.78-5.03-13.06ZM119.98,18.42c0,2.99.93,5.43,2.79,7.32,1.82,1.89,4.19,2.84,7.1,2.84s5.27-.95,7.08-2.84c1.8-1.89,2.71-4.34,2.71-7.32s-.9-5.43-2.71-7.32c-1.8-1.89-4.16-2.84-7.08-2.84s-5.29.95-7.13,2.84c-1.84,1.89-2.76,4.34-2.76,7.32Z"/>
    <path class="cls-1" d="M155.72,5.36c3.35-3.42,7.65-5.14,12.9-5.14,6.27,0,11.06,2.39,14.37,7.16l-6.45,4.81c-.8-1.09-1.9-2.02-3.31-2.79-1.4-.77-2.94-1.15-4.62-1.15-2.92,0-5.29.95-7.13,2.84-1.84,1.89-2.76,4.34-2.76,7.32s.92,5.43,2.76,7.32c1.84,1.89,4.22,2.84,7.13,2.84,1.64,0,3.16-.41,4.56-1.23,1.4-.82,2.52-1.79,3.36-2.92l6.45,5.03c-3.32,4.77-8.11,7.16-14.37,7.16-5.25,0-9.55-1.71-12.9-5.14-3.35-3.42-5.03-7.78-5.03-13.06s1.68-9.64,5.03-13.06Z"/>
    <path class="cls-1" d="M185.99,36.18V.66h17.21c2.88,0,5.44,1.06,7.68,3.17,2.24,2.11,3.36,5.05,3.36,8.8,0,2.77-.64,5.1-1.91,7-1.28,1.89-2.92,3.26-4.92,4.1l7.6,12.46h-9.29l-7.05-11.59h-4.65v11.59h-8.03ZM201.84,16.83c1.2,0,2.23-.37,3.09-1.12.86-.75,1.28-1.78,1.28-3.09s-.43-2.33-1.28-3.06c-.86-.73-1.89-1.09-3.09-1.09h-7.81v8.36h7.81Z"/>
    <path class="cls-1" d="M216.65,36.18L230.97.66h6.07l14.37,35.52h-8.53l-1.91-4.92h-13.88l-1.91,4.92h-8.53ZM238.12,23.94l-4.15-10.49-4.04,10.49h8.2Z"/>
    <path class="cls-1" d="M248.02.66h28.69v7.32h-10.33v28.2h-8.03V7.98h-10.33V.66Z"/>
    <path class="cls-1" d="M313.4,23.39c.58,1.09,1.86,2.27,3.83,3.52,1.97,1.26,4.03,1.89,6.18,1.89,2.95,0,4.43-.98,4.43-2.95,0-.44-.17-.85-.52-1.23-.35-.38-.84-.72-1.48-1.01-.64-.29-1.25-.54-1.83-.74-.58-.2-1.28-.42-2.08-.66-.8-.24-1.38-.43-1.75-.57-.07-.04-.65-.23-1.72-.57-1.08-.35-1.91-.64-2.51-.87-.6-.24-1.45-.66-2.54-1.28-1.09-.62-1.95-1.26-2.57-1.91-.62-.66-1.17-1.52-1.67-2.6-.49-1.07-.74-2.25-.74-3.52,0-3.68,1.36-6.41,4.07-8.2,2.71-1.78,6.04-2.68,9.97-2.68,3.28,0,6.26.8,8.94,2.4,2.68,1.6,4.4,3.41,5.16,5.41l-6.34,4.21c-.55-.91-1.66-1.8-3.33-2.68-1.68-.87-3.48-1.31-5.41-1.31-2.55,0-3.83.82-3.83,2.46,0,.47.16.9.49,1.28s.8.73,1.42,1.04c.62.31,1.19.56,1.72.74.53.18,1.21.4,2.05.66.84.26,1.42.44,1.75.55.04.04.5.2,1.39.49.89.29,1.58.55,2.08.77.49.22,1.21.55,2.16.98.95.44,1.72.91,2.32,1.42.6.51,1.22,1.11,1.86,1.8.64.69,1.12,1.48,1.45,2.38s.49,1.85.49,2.87c0,3.64-1.3,6.45-3.91,8.42-2.61,1.97-6.09,2.95-10.47,2.95-3.9,0-7.22-.87-9.97-2.62-2.75-1.75-4.6-3.81-5.55-6.18l6.45-4.65Z"/>
    <path class="cls-1" d="M0,37.83V2.31h13.5c5.17,0,9.37,1.64,12.6,4.92,3.22,3.28,4.84,7.56,4.84,12.84s-1.61,9.56-4.84,12.84c-3.22,3.28-7.42,4.92-12.6,4.92H0ZM8.03,30.02h5.46c.8,0,1.66-.13,2.57-.38.91-.25,1.92-.69,3.03-1.31,1.11-.62,2.02-1.64,2.73-3.06s1.07-3.15,1.07-5.19c0-1.64-.26-3.09-.77-4.35-.51-1.26-1.12-2.22-1.83-2.9-.71-.67-1.53-1.23-2.46-1.67-.93-.44-1.74-.72-2.43-.85-.69-.13-1.33-.19-1.91-.19h-5.46v19.89Z"/>
    <path class="cls-1" d="M41.06,37.67c-1.17-2.91-1.25-7.13.16-12.25,7.91,5.62,14.92,2.36,19.75-4.43,4.15-5.77,4.57-12.37,2.47-14.82-1.87-2.25-3.91-3.73-6.7-5.16-5.57-2.76-16.15,3.54-22.21,17.84-3.83,9.04-3,17.59,1.56,22.39l4.96-3.57ZM42.77,21.11c4.37-10.53,12.85-17.55,15.23-15.88,1.58,1.08-.41,6.82-3.55,11.55-2.84,4.28-6.94,9.19-12.42,6.21.18-.55.46-1.22.74-1.88Z"/>
    <g>
      <polygon class="cls-1" points="83.36 7 83.04 6.35 82.63 6.97 83.36 7"/>
      <path class="cls-1" d="M100.03.66l-1.76,3.5.9.03,2.28-1.82-.97,1.86,2.21.07-2.82,1.11-1.02,1.96-.68-1.29-1.07.42-7.01,13.94-6.57-13.14-1.51.65-1.05,1.61-.26-1.05-2.07.89,1.91-1.52-.24-.98,1.42.05,1.15-.91-2.69-5.37h-8.09v35.52h8.03v-19.13l7.21,15.14h5.52l7.21-15.14v19.13h8.03V.66h-8.09ZM75.76,13.87l-1.12,1.61-.07-1.11-1.89.8,1.85-1.46-.06-1.04,1.2.13,1.84-1.46-1.08,1.55,1.28.14-1.96.84ZM104.34,10.51l-1.11,2.32-.79-1.65-3.01,1.06,2.54-2.03-.73-1.51,2.29.25,2.53-2.03-1.05,2.19,2.5.27-3.17,1.12Z"/>
      <polygon class="cls-1" points="97.75 5.31 97.72 5.25 97.64 5.4 97.75 5.31"/>
    </g>
  </g>
  <g>
    <g>
      <polyline class="cls-1" points="53.27 46.81 54.62 44.56 56.23 43.97 55.46 43.16 56.82 40.91 54.97 42.65 54.14 41.78 53.8 43.74 51.87 45.56 53.6 44.93 53.27 46.81"/>
      <polyline class="cls-1" points="60.69 40.45 61.95 38.37 63.29 37.92 62.73 37.08 63.99 34.99 62.36 36.54 61.76 35.64 61.34 37.52 59.65 39.14 61.09 38.66 60.69 40.45"/>
      <polyline class="cls-1" points="64.36 32.76 65.57 30.75 66.74 30.45 66.33 29.5 67.54 27.49 66.06 28.9 65.61 27.89 65.12 29.79 63.58 31.25 64.82 30.94 64.36 32.76"/>
      <polyline class="cls-1" points="67.37 24.85 68 23.54 68.7 23.29 68.38 22.74 69.01 21.43 68.18 22.38 67.85 21.79 67.66 22.98 66.81 23.97 67.55 23.7 67.37 24.85"/>
      <polyline class="cls-1" points="39.15 46.88 40.81 44.1 43.05 43.53 41.84 42.37 43.51 39.58 41.06 41.62 39.74 40.36 39.51 42.92 36.93 45.08 39.37 44.46 39.15 46.88"/>
      <polyline class="cls-1" points="45.07 49.54 46.57 47.04 48.5 46.39 47.5 45.49 49 42.98 46.85 44.91 45.76 43.94 45.49 46.13 43.23 48.16 45.33 47.46 45.07 49.54"/>
    </g>
    <g>
      <polyline class="cls-1" points="92.81 2.06 90.75 3.7 89.04 3.69 89.48 4.71 87.41 6.35 89.76 5.37 90.23 6.47 91.24 4.75 93.68 3.72 91.85 3.71 92.81 2.06"/>
      <polyline class="cls-1" points="71.92 17.72 70.88 18.72 70.14 18.71 70.24 19.34 69.19 20.35 70.3 19.75 70.41 20.42 71 19.36 72.15 18.74 71.36 18.73 71.92 17.72"/>
    </g>
  </g>
  <path class="cls-1" d="M304.09.74v7.33h-16.36v6.79h15.21v7.33h-15.21v6.79h16.36v7.33h-24.41V.74h24.41Z"/>
  <g>
    <path class="cls-1" d="M118.3,57.86v-10.92h3.46c1.04,0,1.87.28,2.49.84.62.56.93,1.32.93,2.26,0,.63-.16,1.2-.48,1.69s-.75.84-1.3,1.07c-.55.22-1.34.33-2.37.33h-1.16v4.73h-1.57ZM121.48,48.33h-1.62v3.41h1.71c.63,0,1.12-.15,1.47-.45.34-.3.51-.73.51-1.28,0-1.12-.69-1.68-2.08-1.68Z"/>
    <path class="cls-1" d="M128.73,46.89h1.1l4.89,10.97h-1.6l-1.45-3.23h-4.65l-1.36,3.23h-1.6l4.68-10.97ZM131.03,53.24l-1.76-3.95-1.63,3.95h3.39Z"/>
    <path class="cls-1" d="M135.96,57.86v-10.9h2.73c1.1,0,1.98.27,2.63.82.65.55.97,1.29.97,2.22,0,.63-.16,1.18-.48,1.65s-.77.81-1.37,1.04c.35.23.69.54,1.02.94s.8,1.08,1.4,2.07c.38.62.68,1.08.91,1.4l.58.78h-1.86l-.48-.72s-.05-.07-.09-.13l-.3-.43-.48-.8-.52-.85c-.32-.45-.62-.8-.89-1.07-.27-.27-.51-.46-.73-.57-.22-.12-.58-.17-1.09-.17h-.41v4.75h-1.56ZM137.99,48.28h-.47v3.44h.59c.79,0,1.33-.07,1.63-.2.29-.13.52-.34.69-.61.16-.27.25-.58.25-.93s-.09-.65-.27-.93c-.18-.28-.44-.47-.77-.59-.33-.11-.88-.17-1.64-.17Z"/>
    <path class="cls-1" d="M143.2,46.94h9.11v1.39h-3.8v9.53h-1.57v-9.53h-3.74v-1.39Z"/>
    <path class="cls-1" d="M153.8,46.96h1.56v10.9h-1.56v-10.9Z"/>
    <path class="cls-1" d="M162.24,57.85v-10.89h3.68c1.48,0,2.66.22,3.52.67.86.44,1.55,1.1,2.06,1.96.51.86.77,1.81.77,2.83,0,.73-.14,1.43-.42,2.09-.28.67-.68,1.25-1.2,1.76-.53.52-1.15.91-1.85,1.18-.41.16-.79.27-1.13.32-.34.05-1,.08-1.97.08h-3.45ZM165.75,48.35h-1.95v8.11h2c.78,0,1.39-.05,1.82-.16.43-.11.79-.24,1.08-.41s.55-.37.79-.6c.77-.78,1.16-1.77,1.16-2.96s-.4-2.12-1.19-2.86c-.29-.28-.63-.5-1-.68s-.74-.29-1.07-.35-.88-.09-1.63-.09Z"/>
    <path class="cls-1" d="M174.21,46.96h6.18v1.39h-4.62v3.33h4.46v1.4h-4.46v3.39h4.77v1.39h-6.33v-10.89ZM178.75,43.81l-1.76,2.34h-.87l1.05-2.34h1.58Z"/>
    <path class="cls-1" d="M190.88,46.96h1.46v10.9h-1.57v-8.48l-3.35,4.21h-.29l-3.39-4.21v8.48h-1.56v-10.9h1.48l3.62,4.48,3.6-4.48Z"/>
    <path class="cls-1" d="M200.04,46.8c1.68,0,3.09.53,4.21,1.6,1.12,1.07,1.68,2.4,1.68,4.01s-.57,2.94-1.7,3.99-2.56,1.58-4.28,1.58-3.01-.53-4.11-1.58-1.64-2.37-1.64-3.96.55-2.98,1.65-4.04,2.5-1.6,4.18-1.6ZM200.1,48.28c-1.25,0-2.27.39-3.08,1.17-.8.78-1.21,1.78-1.21,2.99s.4,2.15,1.21,2.94c.81.78,1.81,1.17,3.03,1.17s2.23-.4,3.04-1.19c.81-.8,1.22-1.79,1.22-2.97s-.41-2.13-1.22-2.92-1.81-1.18-3-1.18Z"/>
    <path class="cls-1" d="M217.24,55.33v1.72c-1.14.62-2.47.94-3.96.94-1.22,0-2.25-.24-3.1-.73-.85-.49-1.52-1.16-2.01-2.02-.5-.86-.74-1.79-.74-2.79,0-1.59.57-2.92,1.7-4s2.53-1.62,4.19-1.62c1.14,0,2.42.3,3.82.9v1.68c-1.27-.73-2.52-1.09-3.74-1.09s-2.29.39-3.11,1.18c-.83.79-1.24,1.78-1.24,2.96s.41,2.18,1.22,2.95c.81.77,1.85,1.15,3.11,1.15s2.61-.41,3.87-1.22Z"/>
    <path class="cls-1" d="M219.21,57.86v-10.9h2.73c1.1,0,1.98.27,2.63.82.65.55.97,1.29.97,2.22,0,.63-.16,1.18-.48,1.65s-.77.81-1.37,1.04c.35.23.69.54,1.02.94s.8,1.08,1.4,2.07c.38.62.68,1.08.91,1.4l.58.78h-1.86l-.48-.72s-.05-.07-.09-.13l-.3-.43-.48-.8-.52-.85c-.32-.45-.62-.8-.89-1.07-.27-.27-.51-.46-.73-.57-.22-.12-.58-.17-1.09-.17h-.41v4.75h-1.56ZM221.24,48.28h-.47v3.44h.59c.79,0,1.33-.07,1.63-.2.29-.13.52-.34.69-.61.16-.27.25-.58.25-.93s-.09-.65-.27-.93c-.18-.28-.44-.47-.77-.59-.33-.11-.88-.17-1.64-.17Z"/>
    <path class="cls-1" d="M232.3,46.89h1.1l4.89,10.97h-1.6l-1.45-3.23h-4.65l-1.36,3.23h-1.6l4.68-10.97ZM234.6,53.24l-1.76-3.95-1.63,3.95h3.39Z"/>
    <path class="cls-1" d="M236.95,46.94h9.11v1.39h-3.8v9.53h-1.57v-9.53h-3.74v-1.39Z"/>
    <path class="cls-1" d="M247.54,46.96h6.18v1.39h-4.62v3.33h4.46v1.4h-4.46v3.39h4.77v1.39h-6.33v-10.89Z"/>
    <path class="cls-1" d="M259.97,46.96h6.18v1.39h-4.62v3.33h4.46v1.4h-4.46v3.39h4.77v1.39h-6.33v-10.89Z"/>
    <path class="cls-1" d="M275.55,46.96h1.57v6.19c0,.84-.06,1.47-.18,1.9-.12.43-.27.78-.45,1.07s-.4.54-.66.76c-.86.74-1.99,1.12-3.39,1.12s-2.56-.37-3.42-1.11c-.26-.23-.48-.49-.66-.77-.18-.28-.33-.63-.45-1.04s-.18-1.06-.18-1.94v-6.17h1.57v6.19c0,1.02.12,1.74.35,2.14.23.4.59.72,1.07.96s1.04.36,1.69.36c.93,0,1.68-.24,2.26-.73.31-.26.53-.57.66-.92.13-.35.2-.96.2-1.82v-6.19Z"/>
    <path class="cls-1" d="M279.33,57.86v-10.9h2.73c1.1,0,1.98.27,2.63.82.65.55.97,1.29.97,2.22,0,.63-.16,1.18-.48,1.65s-.77.81-1.37,1.04c.35.23.69.54,1.02.94s.8,1.08,1.4,2.07c.38.62.68,1.08.91,1.4l.58.78h-1.86l-.48-.72s-.05-.07-.09-.13l-.3-.43-.48-.8-.52-.85c-.32-.45-.62-.8-.89-1.07-.27-.27-.51-.46-.73-.57-.22-.12-.58-.17-1.09-.17h-.41v4.75h-1.56ZM281.36,48.28h-.47v3.44h.59c.79,0,1.33-.07,1.63-.2.29-.13.52-.34.69-.61.16-.27.25-.58.25-.93s-.09-.65-.27-.93c-.18-.28-.44-.47-.77-.59-.33-.11-.88-.17-1.64-.17Z"/>
    <path class="cls-1" d="M293.33,46.8c1.68,0,3.09.53,4.21,1.6,1.12,1.07,1.68,2.4,1.68,4.01s-.57,2.94-1.7,3.99-2.56,1.58-4.28,1.58-3.01-.53-4.11-1.58-1.64-2.37-1.64-3.96.55-2.98,1.65-4.04,2.5-1.6,4.18-1.6ZM293.39,48.28c-1.25,0-2.27.39-3.08,1.17-.8.78-1.21,1.78-1.21,2.99s.4,2.15,1.21,2.94c.81.78,1.81,1.17,3.03,1.17s2.23-.4,3.04-1.19c.81-.8,1.22-1.79,1.22-2.97s-.41-2.13-1.22-2.92-1.81-1.18-3-1.18Z"/>
    <path class="cls-1" d="M301.05,57.86v-10.92h3.46c1.04,0,1.87.28,2.49.84.62.56.93,1.32.93,2.26,0,.63-.16,1.2-.48,1.69s-.75.84-1.3,1.07c-.55.22-1.34.33-2.37.33h-1.16v4.73h-1.57ZM304.24,48.33h-1.62v3.41h1.71c.63,0,1.12-.15,1.47-.45.34-.3.51-.73.51-1.28,0-1.12-.69-1.68-2.08-1.68Z"/>
    <path class="cls-1" d="M309.29,46.96h6.18v1.39h-4.62v3.33h4.46v1.4h-4.46v3.39h4.77v1.39h-6.33v-10.89ZM313.82,43.81l-1.76,2.34h-.87l1.05-2.34h1.58Z"/>
    <path class="cls-1" d="M317.28,46.96h6.18v1.39h-4.62v3.33h4.46v1.4h-4.46v3.39h4.77v1.39h-6.33v-10.89Z"/>
    <path class="cls-1" d="M333.94,46.96h1.48v10.9h-1.34l-7.29-8.4v8.4h-1.47v-10.9h1.26l7.35,8.47v-8.47Z"/>
  </g>
</svg>